name Walk7.mot
datacolumns 19
datarows 27
range 2.60800000 2.63400000
endheader

                time	   L_ground_force_vx	   L_ground_force_vy	   L_ground_force_vz	   L_ground_force_px	   L_ground_force_py	   L_ground_force_pz	   R_ground_force_vx	   R_ground_force_vy	   R_ground_force_vz	   R_ground_force_px	   R_ground_force_py	   R_ground_force_pz	   L_ground_torque_x	   L_ground_torque_y	   L_ground_torque_z	   R_ground_torque_x	   R_ground_torque_y	   R_ground_torque_z	
          2.60800000	          0.00000000	          0.00000000	          0.00000000	          0.00000000	          0.00000000	          0.00000000	         58.49876913	        940.30767958	         62.26440521	         -0.37688562	          0.00000000	         -0.07479550	          0.00000000	          0.00000000	          0.00000000	          0.00000000	         -1.52366027	          0.00000000	
          2.60900000	          0.00000000	          0.00000000	          0.00000000	          0.00000000	          0.00000000	          0.00000000	         59.12681555	        940.83500352	         62.27413985	         -0.37660701	          0.00000000	         -0.07492309	          0.00000000	          0.00000000	          0.00000000	          0.00000000	         -1.52003821	          0.00000000	
          2.61000000	          0.00000000	          0.00000000	          0.00000000	          0.00000000	          0.00000000	          0.00000000	         59.73471077	        941.29995782	         62.29609615	         -0.37631789	          0.00000000	         -0.07501772	          0.00000000	          0.00000000	          0.00000000	          0.00000000	         -1.51903366	          0.00000000	
          2.61100000	          0.00000000	          0.00000000	          0.00000000	          0.00000000	          0.00000000	          0.00000000	         60.32595399	        941.67362679	         62.33556617	         -0.37602895	          0.00000000	         -0.07508506	          0.00000000	          0.00000000	          0.00000000	          0.00000000	         -1.51751526	          0.00000000	
          2.61200000	          0.00000000	          0.00000000	          0.00000000	          0.00000000	          0.00000000	          0.00000000	         60.91056925	        941.96531774	         62.38981233	         -0.37573968	          0.00000000	         -0.07514466	          0.00000000	          0.00000000	          0.00000000	          0.00000000	         -1.51375564	          0.00000000	
          2.61300000	          0.00000000	          0.00000000	          0.00000000	          0.00000000	          0.00000000	          0.00000000	         61.49560474	        942.22816985	         62.45659714	         -0.37543811	          0.00000000	         -0.07521499	          0.00000000	          0.00000000	          0.00000000	          0.00000000	         -1.50783698	          0.00000000	
          2.61400000	          0.00000000	          0.00000000	          0.00000000	          0.00000000	          0.00000000	          0.00000000	         62.08023692	        942.53003841	         62.53378374	         -0.37511780	          0.00000000	         -0.07530612	          0.00000000	          0.00000000	          0.00000000	          0.00000000	         -1.49804447	          0.00000000	
          2.61500000	          0.00000000	          0.00000000	          0.00000000	          0.00000000	          0.00000000	          0.00000000	         62.65829520	        942.91335163	         62.61716473	         -0.37478049	          0.00000000	         -0.07541849	          0.00000000	          0.00000000	          0.00000000	          0.00000000	         -1.48000091	          0.00000000	
          2.61600000	          0.00000000	          0.00000000	          0.00000000	          0.00000000	          0.00000000	          0.00000000	         63.22042262	        943.37473138	         62.70516096	         -0.37443127	          0.00000000	         -0.07554303	          0.00000000	          0.00000000	          0.00000000	          0.00000000	         -1.45236650	          0.00000000	
          2.61700000	          0.00000000	          0.00000000	          0.00000000	          0.00000000	          0.00000000	          0.00000000	         63.75268989	        943.86304996	         62.80264441	         -0.37407960	          0.00000000	         -0.07566257	          0.00000000	          0.00000000	          0.00000000	          0.00000000	         -1.42197574	          0.00000000	
          2.61800000	          0.00000000	          0.00000000	          0.00000000	          0.00000000	          0.00000000	          0.00000000	         64.24386255	        944.31063172	         62.91530519	         -0.37373676	          0.00000000	         -0.07576458	          0.00000000	          0.00000000	          0.00000000	          0.00000000	         -1.39923931	          0.00000000	
          2.61900000	          0.00000000	          0.00000000	          0.00000000	          0.00000000	          0.00000000	          0.00000000	         64.70132354	        944.67685072	         63.04227306	         -0.37341040	          0.00000000	         -0.07585738	          0.00000000	          0.00000000	          0.00000000	          0.00000000	         -1.38811706	          0.00000000	
          2.62000000	          0.00000000	          0.00000000	          0.00000000	          0.00000000	          0.00000000	          0.00000000	         65.15084069	        944.96428407	         63.17605984	         -0.37309857	          0.00000000	         -0.07596047	          0.00000000	          0.00000000	          0.00000000	          0.00000000	         -1.38446029	          0.00000000	
          2.62100000	          0.00000000	          0.00000000	          0.00000000	          0.00000000	          0.00000000	          0.00000000	         65.61663073	        945.21315828	         63.30953249	         -0.37278728	          0.00000000	         -0.07607557	          0.00000000	          0.00000000	          0.00000000	          0.00000000	         -1.38379681	          0.00000000	
          2.62200000	          0.00000000	          0.00000000	          0.00000000	          0.00000000	          0.00000000	          0.00000000	         66.10568108	        945.48109565	         63.44344605	         -0.37246125	          0.00000000	         -0.07618553	          0.00000000	          0.00000000	          0.00000000	          0.00000000	         -1.38551676	          0.00000000	
          2.62300000	          0.00000000	          0.00000000	          0.00000000	          0.00000000	          0.00000000	          0.00000000	         66.60930847	        945.80721188	         63.58571146	         -0.37211580	          0.00000000	         -0.07628540	          0.00000000	          0.00000000	          0.00000000	          0.00000000	         -1.38869081	          0.00000000	
          2.62400000	          0.00000000	          0.00000000	          0.00000000	          0.00000000	          0.00000000	          0.00000000	         67.11650474	        946.18581246	         63.74412395	         -0.37175594	          0.00000000	         -0.07639279	          0.00000000	          0.00000000	          0.00000000	          0.00000000	         -1.38969464	          0.00000000	
          2.62500000	          0.00000000	          0.00000000	          0.00000000	          0.00000000	          0.00000000	          0.00000000	         67.62446366	        946.57299593	         63.92076827	         -0.37139082	          0.00000000	         -0.07652336	          0.00000000	          0.00000000	          0.00000000	          0.00000000	         -1.38608641	          0.00000000	
          2.62600000	          0.00000000	          0.00000000	          0.00000000	          0.00000000	          0.00000000	          0.00000000	         68.13642110	        946.92397371	         64.11125612	         -0.37102949	          0.00000000	         -0.07667452	          0.00000000	          0.00000000	          0.00000000	          0.00000000	         -1.37750354	          0.00000000	
          2.62700000	          0.00000000	          0.00000000	          0.00000000	          0.00000000	          0.00000000	          0.00000000	         68.65293415	        947.23854219	         64.30894365	         -0.37067282	          0.00000000	         -0.07683423	          0.00000000	          0.00000000	          0.00000000	          0.00000000	         -1.36205466	          0.00000000	
          2.62800000	          0.00000000	          0.00000000	          0.00000000	          0.00000000	          0.00000000	          0.00000000	         69.16631762	        947.56194714	         64.50959768	         -0.37030938	          0.00000000	         -0.07699272	          0.00000000	          0.00000000	          0.00000000	          0.00000000	         -1.33669675	          0.00000000	
          2.62900000	          0.00000000	          0.00000000	          0.00000000	          0.00000000	          0.00000000	          0.00000000	         69.66361770	        947.92367016	         64.71188883	         -0.36992592	          0.00000000	         -0.07714259	          0.00000000	          0.00000000	          0.00000000	          0.00000000	         -1.30047828	          0.00000000	
          2.63000000	          0.00000000	          0.00000000	          0.00000000	          0.00000000	          0.00000000	          0.00000000	         70.13830942	        948.29696118	         64.91396552	         -0.36951891	          0.00000000	         -0.07727548	          0.00000000	          0.00000000	          0.00000000	          0.00000000	         -1.25422602	          0.00000000	
          2.63100000	          0.00000000	          0.00000000	          0.00000000	          0.00000000	          0.00000000	          0.00000000	         70.59474357	        948.64197669	         65.11068191	         -0.36909350	          0.00000000	         -0.07738709	          0.00000000	          0.00000000	          0.00000000	          0.00000000	         -1.19964460	          0.00000000	
          2.63200000	          0.00000000	          0.00000000	          0.00000000	          0.00000000	          0.00000000	          0.00000000	         71.03612772	        948.95936321	         65.29563928	         -0.36865979	          0.00000000	         -0.07747935	          0.00000000	          0.00000000	          0.00000000	          0.00000000	         -1.14139346	          0.00000000	
          2.63300000	          0.00000000	          0.00000000	          0.00000000	          0.00000000	          0.00000000	          0.00000000	         71.45673441	        949.27379754	         65.46293800	         -0.36823300	          0.00000000	         -0.07755729	          0.00000000	          0.00000000	          0.00000000	          0.00000000	         -1.08680155	          0.00000000	
          2.63400000	          0.00000000	          0.00000000	          0.00000000	          0.00000000	          0.00000000	          0.00000000	         71.85024550	        949.59065022	         65.60916540	         -0.36782494	          0.00000000	         -0.07763413	          0.00000000	          0.00000000	          0.00000000	          0.00000000	         -1.04091691	          0.00000000	
